HIERARCHY
ROOT Hips
{
	OFFSET 0.000000 0.000000 0.000000 
	CHANNELS 6 Xposition Yposition Zposition Yrotation Zrotation Xrotation 
	JOINT Lumbar
	{
		OFFSET 0.000000 0.000000 0.000000 
		CHANNELS 3 Zrotation Xrotation Yrotation
		JOINT Neck
		{
			OFFSET 0.000000 0.445665 0.000000 
			CHANNELS 3 Zrotation Xrotation Yrotation
			End Site
			{
				OFFSET 0.000000 0.227535 0.000000 
			}
		}
		JOINT RightShoulder
		{
			OFFSET 0.019635 0.377685 0.194865 
			CHANNELS 3 Zrotation Xrotation Yrotation
			JOINT RightElbow
			{
				OFFSET 0.000000 -0.243375 0.000000 
				CHANNELS 2 Zrotation Yrotation
				JOINT RightWrist
				{
					OFFSET 0.000000 -0.264825 0.000000 
					CHANNELS 2 Zrotation Xrotation
					End Site
					{
						OFFSET 0.006600 -0.176220 0.000990 
					}
				}
			}
		}
		JOINT LeftShoulder
		{
			OFFSET 0.019635 0.377685 -0.194865 
			CHANNELS 3 Zrotation Xrotation Yrotation
			JOINT LeftElbow
			{
				OFFSET 0.000000 -0.243375 0.000000 
				CHANNELS 2 Zrotation Yrotation
				JOINT LeftWrist
				{
					OFFSET 0.000000 -0.264825 0.000000 
					CHANNELS 2 Zrotation Xrotation
					End Site
					{
						OFFSET 0.006600 -0.176220 -0.000990 
					}
				}
			}
		}
	}
	JOINT RightHip
	{
		OFFSET 0.052140 -0.069960 0.075570 
		CHANNELS 3 Zrotation Xrotation Yrotation
		JOINT RightKnee
		{
			OFFSET 0.000000 -0.402270 0.000000 
			CHANNELS 1 Zrotation
			JOINT RightAnkle
			{
				OFFSET 0.000000 -0.404085 0.000000 
				CHANNELS 3 Zrotation Xrotation Yrotation
				End Site
				{
					OFFSET 0.204105 -0.089430 0.008415 
				}
			}
		}
	}
	JOINT LeftHip
	{
		OFFSET 0.052140 -0.069960 -0.075570 
		CHANNELS 3 Zrotation Xrotation Yrotation
		JOINT LeftKnee
		{
			OFFSET 0.000000 -0.402270 0.000000 
			CHANNELS 1 Zrotation
			JOINT LeftAnkle
			{
				OFFSET 0.000000 -0.404085 0.000000 
				CHANNELS 3 Zrotation Xrotation Yrotation
				End Site
				{
					OFFSET 0.204105 -0.089430 -0.008415 
				}
			}
		}
	}
}
MOTION
Frames: 21
Frame Time: 0.02
-0.21319 -0.92259 0.11831 28.24124 39.81344 -4.22769 -8.80093 1.24284 -2.53755 -46.05873 -4.64948 -2.11994 -32.56403 -34.21663 21.34494 52.55635 82.9777 -3.23456 -10.77627 -18.77841 39.18829 -17.03798 40.87916 -82.85638 -8.27133 10.93133 104.75912 -7.10866 -7.949 -73.02517 -13.86478 -2.0613 -3.58216 126.68097 -13.69369 -13.46752 -125.73194 -26.23415 -22.21369 -9.51057
-0.21282 -0.92239 0.11838 28.18452 39.47786 -4.18705 -8.78426 1.35971 -2.62646 -46.30804 -4.89089 -2.11994 -32.28385 -34.17209 22.139 52.62482 82.81552 -3.20004 -10.82756 -18.82542 39.13747 -18.18508 41.4793 -82.85585 -8.13942 11.09437 106.35989 -7.33296 -8.21001 -75.28829 -14.06028 -2.05513 -3.58811 126.68097 -13.69369 -13.63371 -125.6951 -25.13381 -22.35934 -9.58653
-0.21248 -0.92222 0.11837 28.13606 39.09204 -4.16303 -8.72325 1.5007 -2.76987 -46.53195 -5.14626 -2.11994 -31.91694 -34.18004 22.90578 52.53112 82.64563 -3.1908 -10.83084 -18.7752 39.09844 -19.41035 41.9315 -82.82328 -7.98488 11.2023 108.17519 -7.6179 -8.47985 -77.81721 -14.29361 -2.04318 -3.59355 126.68097 -13.69369 -13.81051 -125.63851 -23.81934 -22.52114 -9.67696
-0.21213 -0.92204 0.11838 28.09299 38.74322 -4.13682 -8.69786 1.6309 -2.89567 -46.76393 -5.39085 -2.11994 -31.59901 -34.17267 23.67357 52.52127 82.48247 -3.1682 -10.85648 -18.76484 39.05544 -20.60589 42.44242 -82.80619 -7.83904 11.32881 109.88511 -7.89403 -8.74515 -80.2342 -14.50695 -2.03305 -3.5986 126.68097 -13.69369 -13.96446 -125.59533 -22.63018 -22.65538 -9.74532
-0.21176 -0.92181 0.11845 28.0117 38.335 -4.08808 -8.60681 1.76117 -2.99495 -47.01052 -5.65746 -2.11994 -31.24106 -34.13118 24.48931 52.47092 82.30767 -3.14864 -10.87339 -18.77255 39.00937 -21.78638 42.99252 -82.78554 -7.69225 11.47436 111.63398 -8.08781 -9.01074 -82.62049 -14.73091 -2.02606 -3.6058 126.68097 -13.69369 -14.19342 -125.53416 -21.32084 -22.8727 -9.87767
-0.21145 -0.9217 0.11838 28.01032 38.03816 -4.08972 -8.64215 1.8968 -3.15971 -47.22169 -5.88082 -2.11994 -30.94224 -34.17297 25.2013 52.4655 82.15391 -3.12933 -10.90018 -18.71711 38.97197 -23.01161 43.42476 -82.76539 -7.54474 11.57156 113.34756 -8.47179 -9.28231 -85.12942 -14.94354 -2.01143 -3.60896 126.68097 -13.69369 -14.2715 -125.50532 -20.21415 -22.92356 -9.88224
-0.2113 -0.9219 0.11791 28.24705 38.06446 -4.23236 -9.03696 2.04057 -3.50805 -47.32826 -5.97437 -2.11994 -30.8688 -34.42572 25.60158 52.62474 82.06759 -3.12027 -10.95732 -18.53983 38.94819 -24.36109 43.56586 -82.74965 -7.40511 11.53295 114.94742 -9.3283 -9.52096 -87.93482 -15.09858 -1.97609 -3.59806 126.68097 -13.69368 -13.89964 -125.5728 -19.68897 -22.48711 -9.5113
-0.21122 -0.92222 0.1173 28.56088 38.20404 -4.42437 -9.56052 2.1891 -3.91727 -47.40215 -6.02469 -2.11994 -30.8492 -34.76103 25.90381 52.83481 82.00106 -3.1085 -11.02786 -18.29603 38.93327 -25.7485 43.59326 -82.73984 -7.26669 11.45104 116.49722 -10.38085 -9.77301 -90.84954 -15.24383 -1.93421 -3.5849 126.68097 -13.69368 -13.3805 -125.67303 -19.38009 -21.88675 -9.01469
-0.21112 -0.92248 0.11677 28.82635 38.28943 -4.58954 -10.02556 2.3356 -4.2875 -47.49959 -6.09878 -2.11994 -30.7806 -35.0625 26.27165 53.02002 81.92048 -3.08862 -11.09955 -18.06599 38.91915 -27.10394 43.67351 -82.72575 -7.12493 11.40093 118.04589 -11.36881 -10.0506 -93.69858 -15.40492 -1.89502 -3.57322 126.68097 -13.69368 -12.94942 -125.75667 -18.9928 -21.3773 -8.58824
-0.21099 -0.92275 0.11614 29.14671 38.38407 -4.77262 -10.48946 2.48165 -4.70673 -47.56014 -6.15594 -2.11994 -30.81879 -35.35127 26.55031 53.20492 81.86131 -3.10916 -11.14143 -17.90767 38.8866 -28.52282 43.74387 -82.70253 -6.99059 11.29957 119.70304 -12.25669 -10.19832 -96.62455 -15.52004 -1.85367 -3.55459 126.68096 -13.69367 -12.43191 -125.8467 -18.51655 -20.80011 -8.1076
-0.21093 -0.92304 0.1157 29.37294 38.48755 -4.93146 -10.98644 2.63037 -5.03856 -47.68919 -6.23803 -2.11994 -30.64057 -35.68422 26.99104 53.40734 81.76195 -3.04429 -11.24604 -17.57838 38.89249 -29.81955 43.80952 -82.71859 -6.8457 11.29295 121.11941 -13.39722 -10.61546 -99.41271 -15.72711 -1.81928 -3.5562 126.68096 -13.69367 -12.05634 -125.93164 -18.27667 -20.32361 -7.7093
-0.21107 -0.92336 0.11586 29.30268 38.58317 -4.99727 -11.54739 2.77707 -5.1051 -48.02236 -6.3986 -2.11994 -29.91694 -36.12707 27.91051 53.62133 81.54974 -2.7465 -11.54901 -16.85268 39.0176 -30.75209 43.89245 -82.66394 -6.62984 11.5807 121.88217 -15.1987 -11.80772 -101.79107 -16.19521 -1.77104 -3.55768 126.68096 -13.69367 -12.13378 -125.99346 -18.6618 -20.17608 -7.57316
-0.21128 -0.92369 0.11621 29.13779 38.68471 -5.03909 -12.13673 2.92749 -5.08253 -48.42377 -6.5861 -2.11994 -28.96006 -36.60859 28.99577 53.85531 81.29564 -2.3622 -11.91006 -15.94569 39.1776 -31.56352 43.97483 -82.66806 -6.40763 11.96177 122.4029 -17.24368 -13.26341 -104.02506 -16.75274 -1.73576 -3.5882 126.68097 -13.69368 -12.35429 -126.04965 -19.27201 -20.13336 -7.52338
-0.21146 -0.924 0.11644 29.02844 38.787 -5.10152 -12.71051 3.08174 -5.107 -48.79033 -6.76153 -2.11994 -28.06993 -37.06833 29.99982 54.09852 81.05912 -2.01607 -12.22554 -15.08441 39.31224 -32.44119 44.05658 -82.77959 -6.22025 12.28542 123.03467 -19.17156 -14.57684 -106.32674 -17.26901 -1.71827 -3.64505 126.68097 -13.69368 -12.49302 -126.10878 -19.7659 -20.03561 -7.43131
-0.21165 -0.92438 0.1168 28.87093 38.8794 -5.1264 -13.29968 3.2137 -5.1079 -49.17462 -6.93376 -2.11994 -27.35495 -37.55354 31.02299 54.27122 80.83045 -1.67518 -12.62051 -14.37939 39.48961 -33.27184 44.13802 -82.38205 -5.91273 12.66948 123.66263 -21.14013 -15.98906 -108.62784 -17.79728 -1.60371 -3.54308 126.68097 -13.69368 -12.69794 -126.16607 -20.33344 -19.96375 -7.34767
-0.21183 -0.92462 0.11695 28.78763 38.99146 -5.22101 -13.86225 3.39184 -5.13357 -49.53522 -7.12087 -2.11994 -26.20951 -37.98777 32.04975 54.58841 80.57396 -1.30226 -12.86593 -13.30195 39.58328 -34.17253 44.22143 -82.98725 -5.83549 12.95225 124.23888 -23.07091 -17.25397 -110.88911 -18.30972 -1.69056 -3.76865 126.68097 -13.69369 -12.80016 -126.22715 -20.78944 -19.86456 -7.26867
-0.21196 -0.92445 0.11643 28.95415 39.16327 -5.532 -14.34083 3.70557 -5.2689 -49.84238 -7.33167 -2.11994 -24.01362 -38.32248 33.02384 55.35358 80.25649 -0.86698 -12.66336 -11.28124 39.4615 -35.28442 44.31143 -86.97681 -6.55861 12.9172 124.75529 -24.90819 -18.08234 -113.11941 -18.86428 -2.36756 -4.98125 126.68097 -13.69369 -12.59037 -126.28532 -20.95671 -19.66695 -7.18191
-0.21207 -0.92414 0.1157 29.19394 39.35276 -5.91032 -14.7919 4.06375 -5.42806 -50.11785 -7.55852 -2.11994 -21.37721 -38.59443 34.00111 56.25204 79.90787 -0.40144 -12.31188 -8.88462 39.24968 -36.47295 44.40374 -91.86786 -7.48678 12.77994 125.22384 -26.68513 -18.74772 -115.30553 -19.38208 -3.24212 -6.50722 126.68097 -13.69369 -12.27166 -126.35013 -20.98894 -19.43743 -7.09755
-0.21218 -0.9239 0.1151 29.38583 39.52908 -6.24591 -15.25698 4.39593 -5.56352 -50.38953 -7.78562 -2.11994 -18.88894 -38.86175 34.99101 57.05533 79.57407 0.0533 -12.04247 -6.63386 39.06321 -37.63401 44.49507 -95.91789 -8.20979 12.69993 125.69896 -28.44225 -19.46376 -117.48309 -19.84311 -3.99913 -7.82899 126.68097 -13.69369 -11.99943 -126.42135 -21.0332 -19.22297 -7.01218
-0.2123 -0.92362 0.11438 29.63706 39.72748 -6.63226 -15.71588 4.75356 -5.75117 -50.74158 -7.98275 -2.11994 -16.61213 -39.27142 35.92443 58.01002 79.25009 0.49812 -11.71527 -4.48261 38.94384 -38.75997 44.58641 -101.74171 -9.39094 12.57817 126.22958 -30.40651 -20.28418 -119.77802 -20.60784 -4.86479 -9.40648 126.68097 -13.69369 -11.74543 -126.45242 -21.29395 -19.01426 -6.92874
-0.21241 -0.9234 0.11384 29.78214 39.88387 -6.92876 -16.18186 5.06766 -5.83578 -50.91632 -8.24459 -2.11994 -13.79357 -39.36795 36.97758 58.67494 78.88116 0.97027 -11.47111 -2.03664 38.66269 -39.97858 44.67781 -104.14609 -9.68466 12.51714 126.63655 -31.92294 -20.84964 -121.81805 -20.74221 -5.56223 -10.53313 126.68097 -13.69369 -11.42499 -126.56897 -21.06854 -18.77897 -6.84156
